<mxfile host="app.diagrams.net" modified="2023-08-07T09:16:09.186Z" agent="Mozilla/5.0 (Macintosh; Intel Mac OS X 10_15_7) AppleWebKit/537.36 (KHTML, like Gecko) Chrome/115.0.0.0 Safari/537.36" etag="bxSZ6n01P9L-_7d2Ocxb" version="21.6.6" type="github">
  <diagram name="Page-1" id="FwtpbAXmtD9cuqcDxjWT">
    <mxGraphModel dx="1306" dy="837" grid="1" gridSize="10" guides="1" tooltips="1" connect="1" arrows="1" fold="1" page="1" pageScale="1" pageWidth="827" pageHeight="1169" math="0" shadow="0">
      <root>
        <mxCell id="0" />
        <mxCell id="1" parent="0" />
        <mxCell id="wKNKQ3M-LoEPYYia_i7z-1" value="交行" style="text;html=1;strokeColor=none;fillColor=none;align=center;verticalAlign=middle;whiteSpace=wrap;rounded=0;" vertex="1" parent="1">
          <mxGeometry x="250" y="100" width="60" height="30" as="geometry" />
        </mxCell>
        <mxCell id="wKNKQ3M-LoEPYYia_i7z-2" value="京东/美团" style="text;html=1;strokeColor=none;fillColor=none;align=center;verticalAlign=middle;whiteSpace=wrap;rounded=0;" vertex="1" parent="1">
          <mxGeometry x="424" y="100" width="60" height="30" as="geometry" />
        </mxCell>
        <mxCell id="wKNKQ3M-LoEPYYia_i7z-3" value="ID1&lt;br&gt;ID2&lt;br&gt;ID3" style="text;html=1;strokeColor=none;fillColor=none;align=center;verticalAlign=middle;whiteSpace=wrap;rounded=0;" vertex="1" parent="1">
          <mxGeometry x="250" y="140" width="60" height="30" as="geometry" />
        </mxCell>
        <mxCell id="wKNKQ3M-LoEPYYia_i7z-4" value="ID1&lt;br&gt;ID3&lt;br&gt;ID5" style="text;html=1;strokeColor=none;fillColor=none;align=center;verticalAlign=middle;whiteSpace=wrap;rounded=0;" vertex="1" parent="1">
          <mxGeometry x="414" y="140" width="60" height="30" as="geometry" />
        </mxCell>
        <mxCell id="wKNKQ3M-LoEPYYia_i7z-5" value="双方ID加密" style="text;html=1;strokeColor=none;fillColor=none;align=center;verticalAlign=middle;whiteSpace=wrap;rounded=0;" vertex="1" parent="1">
          <mxGeometry x="130" y="220" width="70" height="30" as="geometry" />
        </mxCell>
        <mxCell id="wKNKQ3M-LoEPYYia_i7z-6" value="ENC(ID1)&lt;br&gt;ENC(ID2)&lt;br&gt;ENC(ID3)" style="text;html=1;strokeColor=none;fillColor=none;align=center;verticalAlign=middle;whiteSpace=wrap;rounded=0;" vertex="1" parent="1">
          <mxGeometry x="260" y="220" width="60" height="30" as="geometry" />
        </mxCell>
        <mxCell id="wKNKQ3M-LoEPYYia_i7z-7" value="ENC(ID1)&lt;br&gt;ENC(ID3)&lt;br&gt;ENC(ID5)" style="text;html=1;strokeColor=none;fillColor=none;align=center;verticalAlign=middle;whiteSpace=wrap;rounded=0;" vertex="1" parent="1">
          <mxGeometry x="414" y="220" width="60" height="30" as="geometry" />
        </mxCell>
        <mxCell id="wKNKQ3M-LoEPYYia_i7z-8" value="基于单向函数碰撞率公式计算关键参数k" style="text;html=1;strokeColor=none;fillColor=none;align=center;verticalAlign=middle;whiteSpace=wrap;rounded=0;" vertex="1" parent="1">
          <mxGeometry x="130" y="280" width="70" height="30" as="geometry" />
        </mxCell>
        <mxCell id="wKNKQ3M-LoEPYYia_i7z-9" value="通过目标拆包的交际覆盖率以及包的个数计算k" style="text;html=1;strokeColor=none;fillColor=none;align=center;verticalAlign=middle;whiteSpace=wrap;rounded=0;" vertex="1" parent="1">
          <mxGeometry x="260" y="280" width="70" height="30" as="geometry" />
        </mxCell>
        <mxCell id="wKNKQ3M-LoEPYYia_i7z-10" value="基于k和密文ID生成字典Dict" style="text;html=1;strokeColor=none;fillColor=none;align=center;verticalAlign=middle;whiteSpace=wrap;rounded=0;" vertex="1" parent="1">
          <mxGeometry x="130" y="350" width="70" height="30" as="geometry" />
        </mxCell>
        <mxCell id="wKNKQ3M-LoEPYYia_i7z-11" value="流量段使用Dict进行拆包并投放" style="text;html=1;strokeColor=none;fillColor=none;align=center;verticalAlign=middle;whiteSpace=wrap;rounded=0;" vertex="1" parent="1">
          <mxGeometry x="130" y="410" width="70" height="30" as="geometry" />
        </mxCell>
        <mxCell id="wKNKQ3M-LoEPYYia_i7z-12" value="ENC(ID1)&lt;br&gt;ENC(ID3)" style="text;html=1;strokeColor=default;fillColor=none;align=center;verticalAlign=middle;whiteSpace=wrap;rounded=0;" vertex="1" parent="1">
          <mxGeometry x="414" y="360" width="60" height="30" as="geometry" />
        </mxCell>
        <mxCell id="wKNKQ3M-LoEPYYia_i7z-13" value="ENC(ID3)" style="text;html=1;strokeColor=default;fillColor=none;align=center;verticalAlign=middle;whiteSpace=wrap;rounded=0;" vertex="1" parent="1">
          <mxGeometry x="414" y="410" width="60" height="30" as="geometry" />
        </mxCell>
      </root>
    </mxGraphModel>
  </diagram>
</mxfile>
